<?xml version="1.0" encoding="UTF-8" ?>

<svg width="61" height="30" viewBox="0 0 61 30" fill="none" xmlns="http://www.w3.org/2000/svg">
<path d="M12.6723 0.259651C12.8387 0.0933671 13.0643 -1.86297e-05 13.2995 1.99376e-06H16.7249C16.9006 6.31617e-05 17.0724 0.0522445 17.2184 0.149951C17.3645 0.247657 17.4784 0.386502 17.5456 0.548936C17.6128 0.71137 17.6304 0.890102 17.5961 1.06254C17.5619 1.23498 17.4773 1.39339 17.3531 1.51774L12.5061 6.36841L7.65918 11.2191C7.57661 11.3016 7.5111 11.3996 7.4664 11.5074C7.4217 11.6153 7.3987 11.7309 7.3987 11.8477C7.3987 11.9644 7.4217 12.08 7.4664 12.1879C7.5111 12.2958 7.57661 12.3937 7.65918 12.4762L17.3755 22.2009C17.4971 22.3237 17.5798 22.4798 17.613 22.6494C17.6463 22.8191 17.6287 22.9948 17.5625 23.1545C17.4963 23.3142 17.3844 23.4507 17.2408 23.5469C17.0973 23.6432 16.9285 23.6948 16.7558 23.6953H13.3023C13.0649 23.6953 12.8373 23.6009 12.6695 23.4329L5.73179 16.4905C5.60604 16.365 5.44595 16.2796 5.27174 16.2451C5.09753 16.2106 4.917 16.2285 4.75294 16.2965C4.58888 16.3646 4.44864 16.4797 4.34992 16.6274C4.2512 16.7752 4.19843 16.9489 4.19827 17.1266V22.7978C4.19839 22.9156 4.17531 23.0323 4.13033 23.1412C4.08536 23.2501 4.01938 23.349 3.93616 23.4324C3.85294 23.5157 3.75413 23.5819 3.64535 23.627C3.53658 23.6721 3.41999 23.6953 3.30224 23.6953H0.888563C0.652901 23.6953 0.426892 23.6016 0.260254 23.4349C0.0936161 23.2681 0 23.042 0 22.8062V0.896632C0 0.658831 0.0944029 0.43077 0.262441 0.262619C0.430479 0.0944681 0.658388 1.99376e-06 0.896029 1.99376e-06H3.32371C3.43872 -0.000243649 3.55264 0.0222115 3.65896 0.0660818C3.76529 0.109952 3.86192 0.174376 3.94332 0.255666C4.02473 0.336955 4.08932 0.433514 4.13339 0.539814C4.17746 0.646114 4.20014 0.760067 4.20014 0.875151V6.63133C4.20008 6.8045 4.25142 6.97378 4.34765 7.11771C4.44387 7.26165 4.58065 7.37374 4.74062 7.43977C4.9006 7.50581 5.07657 7.52281 5.24622 7.48863C5.41587 7.45444 5.57155 7.37061 5.69352 7.24776L12.6723 0.259651Z" fill="#FFE800"/>
<path fill-rule="evenodd" clip-rule="evenodd" d="M18.9712 4.99774C20.3251 4.09267 21.9168 3.60969 23.545 3.60987C25.7275 3.61259 27.8197 4.4814 29.3628 6.02572C30.9059 7.57005 31.7739 9.66378 31.7764 11.8477C31.7764 13.477 31.2935 15.0697 30.3889 16.4244C29.4843 17.7791 28.1985 18.835 26.6942 19.4585C25.1899 20.0819 23.5347 20.245 21.9377 19.9271C20.3408 19.6092 18.8739 18.8245 17.7227 17.6723C16.5714 16.5202 15.7874 15.0522 15.4699 13.4542C15.1524 11.8562 15.3155 10.1998 15.9387 8.69455C16.562 7.18931 17.6173 5.9028 18.9712 4.99774ZM21.3035 15.2035C21.967 15.647 22.7471 15.8836 23.545 15.8834C24.6143 15.8822 25.6394 15.4566 26.3955 14.7C27.1516 13.9434 27.5769 12.9176 27.5781 11.8477C27.5783 11.0492 27.3418 10.2686 26.8986 9.60464C26.4555 8.94066 25.8254 8.42312 25.0883 8.11748C24.3511 7.81184 23.5399 7.73182 22.7573 7.88754C21.9747 8.04327 21.2559 8.42775 20.6916 8.99235C20.1274 9.55695 19.7432 10.2763 19.5876 11.0594C19.432 11.8426 19.5119 12.6543 19.8174 13.3919C20.1228 14.1296 20.64 14.76 21.3035 15.2035Z" fill="#FFE800"/>
<path fill-rule="evenodd" clip-rule="evenodd" d="M52.7677 3.60987C51.1395 3.60987 49.5479 4.09301 48.1941 4.99819C46.8403 5.90337 45.7852 7.18994 45.1621 8.6952C44.539 10.2005 44.376 11.8568 44.6936 13.4548C45.0113 15.0527 45.7953 16.5206 46.9466 17.6727C48.0979 18.8247 49.5648 19.6093 51.1617 19.9272C52.7586 20.245 54.4138 20.0819 55.9181 19.4584C57.4223 18.8349 58.708 17.779 59.6126 16.4243C60.5172 15.0696 61 13.4769 61 11.8477C60.9975 9.66362 60.1294 7.56975 58.5861 6.0254C57.0428 4.48105 54.9503 3.61234 52.7677 3.60987ZM52.7677 15.8834C51.9698 15.8834 51.1899 15.6467 50.5265 15.2031C49.8631 14.7595 49.346 14.129 49.0407 13.3913C48.7354 12.6536 48.6556 11.8419 48.8113 11.0589C48.967 10.2758 49.3513 9.55652 49.9156 8.99202C50.4799 8.42751 51.1987 8.04313 51.9813 7.88747C52.7639 7.73182 53.575 7.8119 54.3121 8.11757C55.0492 8.42324 55.6792 8.94078 56.1223 9.60474C56.5655 10.2687 56.8019 11.0492 56.8017 11.8477C56.8007 12.9179 56.3754 13.944 55.619 14.7006C54.8627 15.4573 53.8372 15.8827 52.7677 15.8834Z" fill="#FFE800"/>
<path d="M43.7962 16.4971V18.9198C43.796 19.1541 43.7029 19.3787 43.5374 19.5443C43.3718 19.71 43.1474 19.8031 42.9133 19.8034H33.3855C33.155 19.8034 32.934 19.7118 32.771 19.5487C32.6081 19.3856 32.5165 19.1644 32.5165 18.9338V16.4821C32.5168 16.2487 32.6096 16.0249 32.7747 15.8599C32.9397 15.695 33.1634 15.6023 33.3967 15.6023H35.1617C35.3991 15.6023 35.6268 15.5079 35.7946 15.3399C35.9625 15.172 36.0568 14.9441 36.0568 14.7066V4.78575C36.0568 4.66817 36.0799 4.55174 36.1249 4.44313C36.1699 4.33451 36.2359 4.23583 36.319 4.15273C36.4021 4.06963 36.5008 4.00374 36.6094 3.95883C36.718 3.91392 36.8344 3.89087 36.9519 3.89099H39.3506C39.5907 3.89099 39.821 3.98644 39.9908 4.15634C40.1606 4.32625 40.256 4.55668 40.256 4.79696V14.7057C40.2559 14.8234 40.2789 14.9399 40.3239 15.0487C40.3688 15.1575 40.4347 15.2563 40.5178 15.3396C40.601 15.4229 40.6997 15.4889 40.8083 15.534C40.917 15.5791 41.0335 15.6023 41.1511 15.6023H42.9021C43.1392 15.6023 43.3667 15.6966 43.5343 15.8644C43.702 16.0322 43.7962 16.2597 43.7962 16.4971Z" fill="#FFE800"/>
<path d="M51.3117 24.832C51.5456 25.8121 51.7805 26.7915 52.0164 27.7703C52.0321 27.8497 52.0319 27.9313 52.0158 28.0106C51.9998 28.0898 51.9682 28.1651 51.9229 28.2321C51.8776 28.2991 51.8195 28.3564 51.7519 28.4007C51.6843 28.4451 51.6086 28.4755 51.5292 28.4904C42.7318 30.5032 33.594 30.5032 24.7967 28.4904C24.7156 28.4753 24.6384 28.4443 24.5694 28.3991C24.5005 28.3539 24.4411 28.2955 24.3949 28.2272C24.3486 28.159 24.3163 28.0822 24.2999 28.0014C24.2835 27.9205 24.2832 27.8372 24.2992 27.7563C24.5338 26.7787 24.7684 25.8009 25.003 24.8227C25.0407 24.6714 25.1366 24.5412 25.2698 24.4602C25.4029 24.3792 25.5626 24.3541 25.7142 24.3902C33.9007 26.2647 42.4046 26.2647 50.5911 24.3902C50.7452 24.3542 50.9072 24.3803 51.0421 24.463C51.177 24.5457 51.2738 24.6783 51.3117 24.832Z" fill="#FFE800"/>
</svg>
